<?xml version="1.0" standalone="no"?>
<!DOCTYPE svg PUBLIC "-//W3C//DTD SVG 20010904//EN"
 "http://www.w3.org/TR/2001/REC-SVG-20010904/DTD/svg10.dtd">
<svg version="1.0" xmlns="http://www.w3.org/2000/svg"
 width="480.000000pt" height="480.000000pt" viewBox="0 0 480.000000 480.000000"
 preserveAspectRatio="xMidYMid meet">
<metadata>
Created by potrace 1.14, written by Peter Selinger 2001-2017
</metadata>
<g transform="translate(0.000000,480.000000) scale(0.100000,-0.100000)"
fill="#000000" stroke="none">
<path d="M3085 4132 c-11 -2 -27 -6 -35 -9 -8 -3 -20 -5 -26 -4 -18 2 -104
-39 -104 -50 0 -6 -4 -8 -9 -5 -11 7 -131 -112 -131 -130 0 -8 -4 -14 -9 -14
-7 0 -22 -36 -25 -62 -1 -3 -4 -10 -8 -14 -5 -4 -8 -18 -8 -31 0 -12 -5 -23
-10 -23 -7 0 -7 -6 -1 -19 6 -10 7 -22 3 -25 -4 -4 -7 -467 -8 -1029 0 -956
-4 -1109 -24 -1147 -4 -8 -9 -19 -10 -25 -10 -39 -64 -127 -74 -118 -3 3 -8
-2 -12 -11 -3 -9 -12 -16 -20 -16 -8 0 -14 -4 -14 -8 0 -25 -232 -70 -262 -51
-7 4 -18 3 -25 -3 -7 -6 -13 -6 -13 -1 0 5 -17 10 -37 11 -20 2 -55 11 -78 21
-22 10 -44 20 -50 22 -11 5 -85 79 -85 85 0 11 -88 122 -124 156 -38 36 -117
81 -143 81 -7 0 -13 4 -13 8 0 4 -8 6 -17 4 -10 -1 -28 2 -40 6 -13 5 -23 5
-23 1 0 -4 -21 -7 -48 -8 -67 -2 -102 -7 -102 -16 0 -4 -7 -8 -15 -8 -17 0
-96 -47 -107 -64 -4 -6 -8 -8 -8 -4 0 11 -50 -42 -50 -53 0 -5 -7 -12 -15 -15
-8 -4 -13 -10 -10 -14 3 -4 -2 -13 -10 -20 -8 -7 -12 -16 -9 -21 3 -5 0 -9 -5
-9 -6 0 -10 -3 -10 -7 1 -5 0 -10 -1 -13 -5 -15 -12 -48 -14 -67 0 -13 -3 -23
-6 -23 -7 0 -5 -85 4 -147 4 -29 12 -53 17 -53 5 0 8 -3 7 -7 -3 -9 23 -75 31
-83 4 -3 18 -21 33 -40 44 -59 140 -150 158 -150 5 0 10 -3 10 -8 0 -4 8 -12
19 -17 10 -6 51 -28 92 -50 41 -21 77 -40 82 -41 4 -1 9 -3 12 -4 3 -1 8 -3
13 -5 9 -2 40 -14 67 -25 25 -10 141 -41 175 -47 14 -2 32 -6 40 -7 8 -2 31
-6 50 -10 19 -3 56 -8 81 -10 25 -1 50 -5 55 -8 11 -6 361 -1 419 6 22 3 58 8
80 12 22 4 50 7 63 8 12 1 22 5 22 10 0 5 3 7 6 3 3 -3 23 1 45 8 21 8 39 12
39 9 0 -2 17 4 39 15 21 11 41 17 45 14 3 -3 15 2 26 12 11 10 20 15 20 11 0
-7 107 51 133 72 9 8 17 12 17 9 0 -4 8 1 19 11 10 9 39 35 64 57 25 21 43 43
41 47 -3 5 -2 7 3 6 12 -4 74 67 66 76 -3 3 -1 6 5 6 12 0 82 103 82 120 0 5
8 14 18 19 10 7 12 11 4 11 -10 0 -8 8 6 28 11 15 25 46 32 70 7 23 17 42 22
42 5 0 7 4 4 9 -4 5 -2 21 4 35 5 15 12 37 14 49 3 12 8 33 11 47 4 14 8 34 9
45 1 11 4 25 7 30 3 6 5 17 4 25 0 8 4 18 10 22 7 5 6 8 -1 8 -12 0 -11 41 1
59 3 6 0 11 -7 11 -9 0 -10 2 -2 8 17 10 17 2071 0 2091 -9 12 -8 13 4 6 12
-7 12 -5 -1 11 -9 10 -14 25 -12 32 3 6 0 12 -7 12 -6 0 -8 5 -4 12 4 6 -1 17
-11 25 -11 7 -16 13 -12 13 11 0 -23 50 -60 90 -18 19 -33 39 -33 43 0 5 -4 6
-9 3 -5 -3 -21 6 -35 19 -15 14 -34 25 -42 25 -7 0 -14 4 -14 10 0 5 -7 7 -15
4 -8 -4 -15 -1 -15 7 0 7 -3 9 -6 6 -4 -3 -15 -2 -25 3 -18 10 -139 19 -174
12z"/>
</g>
</svg>
